<svg width="160" height="160" viewBox="0 0 160 160" fill="none" xmlns="http://www.w3.org/2000/svg">
<path d="M17.2518 48.3838C19.1153 48.3838 20.6212 49.8955 20.6212 51.7452C20.6212 53.5949 19.1059 55.1066 17.2518 55.1066C15.3976 55.1066 13.8824 53.5949 13.8824 51.7452C13.8824 49.8955 15.3976 48.3838 17.2518 48.3838ZM17.2518 46.506C14.3529 46.506 12 48.8533 12 51.7452C12 54.6371 14.3529 56.9845 17.2518 56.9845C20.1506 56.9845 22.5035 54.6371 22.5035 51.7452C22.5035 48.8533 20.1506 46.506 17.2518 46.506Z" fill="#A4DBE8"/>
<path d="M78.607 32.8914C82.729 32.8914 86.0706 29.5579 86.0706 25.4457C86.0706 21.3336 82.729 18 78.607 18C74.4851 18 71.1435 21.3336 71.1435 25.4457C71.1435 29.5579 74.4851 32.8914 78.607 32.8914Z" fill="#A3E8C7"/>
<path d="M25.1106 94.6074L34.1176 110.015H16.1035L25.1106 94.6074Z" fill="#A3E8C7"/>
<path d="M127.539 49.9143L130.287 54.6184H124.791L127.539 49.9143ZM127.539 46.1868L121.515 56.4962H133.572L127.548 46.1868H127.539Z" fill="#A4DBE8"/>
<path d="M147 86.4481H133.061V100.354H147V86.4481Z" fill="#D8D8DC"/>
<path d="M110.983 45.229H41.3359V136.305H110.983V45.229Z" fill="#D8D8DC"/>
<path d="M133.712 136.7L119.604 122.625C123.312 118.588 125.571 113.217 125.571 107.33C125.571 94.8327 115.378 84.6641 102.851 84.6641C90.3238 84.6641 80.1309 94.8327 80.1309 107.33C80.1309 119.827 90.3238 129.996 102.851 129.996C107.66 129.996 112.112 128.493 115.792 125.949L130.145 140.268C130.634 140.756 131.284 141.009 131.933 141.009C132.583 141.009 133.223 140.765 133.721 140.268C134.71 139.282 134.71 137.686 133.721 136.709L133.712 136.7ZM85.185 107.33C85.185 97.6119 93.1097 89.7061 102.851 89.7061C112.592 89.7061 120.517 97.6119 120.517 107.33C120.517 117.048 112.592 124.954 102.851 124.954C93.1097 124.954 85.185 117.048 85.185 107.33Z" fill="#017A98"/>
<path opacity="0.24" d="M102.851 124.954C112.607 124.954 120.517 117.063 120.517 107.33C120.517 97.5966 112.607 89.7062 102.851 89.7062C93.0943 89.7062 85.185 97.5966 85.185 107.33C85.185 117.063 93.0943 124.954 102.851 124.954Z" fill="white"/>
</svg>
